<?xml version="1.0" encoding="UTF-8" standalone="no"?>
<!DOCTYPE svg PUBLIC "-//W3C//DTD SVG 1.1//EN" "http://www.w3.org/Graphics/SVG/1.1/DTD/svg11.dtd">
<svg width="100%" height="100%" viewBox="0 0 17067 17067" version="1.1" xmlns="http://www.w3.org/2000/svg" xmlns:xlink="http://www.w3.org/1999/xlink" xml:space="preserve" xmlns:serif="http://www.serif.com/" style="fill-rule:evenodd;clip-rule:evenodd;stroke-linejoin:round;stroke-miterlimit:2;">
    <g transform="matrix(1,0,0,1,-201973,-199422)">
        <g id="Final-Tiny-Gradient" serif:id="Final Tiny Gradient" transform="matrix(1,0,0,1,201973,199422)">
            <rect x="0" y="0" width="17066.7" height="17066.7" style="fill:none;"/>
            <g transform="matrix(1.0949,0,0,1.0949,-118301,-196928)">
                <path d="M115835,191396C116121,191204 116465,191092 116836,191092C117829,191092 118636,191898 118636,192892L118636,193743C118636,194183 118278,194541 117837,194541C117397,194541 117039,194183 117039,193743L117039,192892C117039,192779 116948,192688 116836,192688C116724,192688 116633,192779 116633,192892L116633,192892L116633,194195C116633,194635 116275,194993 115835,194993C115394,194993 115036,194635 115036,194195L115036,192892C115036,193090 115036,193063 115036,192892L115036,192892C115036,192779 114945,192688 114833,192688C114721,192688 114630,192779 114630,192892L114630,194648C114630,195089 114272,195446 113832,195446C113391,195446 113033,195089 113033,194648L113033,192892C113033,191898 113840,191092 114833,191092C115204,191092 115548,191204 115835,191396Z" style="fill:url(#_Linear1);"/>
            </g>
            <g transform="matrix(0.575641,0,0,1.49057,3621.2,-1713.96)">
                <path d="M8533.33,3950.62C8161.06,4176.3 7765.57,4405.03 7366.14,4638.77C5722.52,5600.59 4002.8,6694.94 5326.84,8275.48C5695.34,8715.38 5069.74,9188.05 3930.68,9330.36C2791.62,9472.68 1567.66,9231.08 1199.16,8791.18C-356.8,6933.78 903.558,5540.55 2723.86,4343.61C3506.52,3828.98 4397.92,3355.63 5148.56,2895.03C5720.61,2544.03 6220.78,2208.45 6391.41,1854.38C6406.77,1817.66 6428.41,1781.58 6455.96,1746.36C6561.5,1610.35 6751.71,1490.94 6999.65,1395.4C7247.05,1299.65 7556.24,1226.19 7908.43,1185.43C8107.99,1162.15 8318.15,1149.8 8533.33,1149.87C8748.52,1149.8 8958.67,1162.15 9158.24,1185.43C9510.42,1226.19 9819.62,1299.65 10067,1395.4C10315,1490.94 10505.2,1610.35 10610.7,1746.36C10638.3,1781.58 10659.9,1817.66 10675.3,1854.38C10845.9,2208.45 11346.1,2544.03 11918.1,2895.03C12668.7,3355.63 13560.1,3828.98 14342.8,4343.61C16163.1,5540.55 17423.5,6933.78 15867.5,8791.18C15499,9231.08 14275.1,9472.68 13136,9330.36C11996.9,9188.05 11371.3,8715.38 11739.8,8275.48C13063.9,6694.94 11344.2,5600.59 9700.53,4638.77C9301.09,4405.03 8905.6,4176.3 8533.33,3950.62Z" style="fill:url(#_Linear2);"/>
            </g>
        </g>
    </g>
    <defs>
        <linearGradient id="_Linear1" x1="0" y1="0" x2="1" y2="0" gradientUnits="userSpaceOnUse" gradientTransform="matrix(1.14411e-12,18684.7,-18684.7,1.14411e-12,115835,178481)"><stop offset="0" style="stop-color:rgb(23,44,97);stop-opacity:1"/><stop offset="0.5" style="stop-color:rgb(54,91,149);stop-opacity:1"/><stop offset="1" style="stop-color:rgb(65,107,167);stop-opacity:1"/></linearGradient>
        <linearGradient id="_Linear2" x1="0" y1="0" x2="1" y2="0" gradientUnits="userSpaceOnUse" gradientTransform="matrix(2.17616e-12,13724.9,-35539.4,8.40408e-13,8533.33,138.016)"><stop offset="0" style="stop-color:rgb(23,45,98);stop-opacity:1"/><stop offset="0.51" style="stop-color:rgb(54,91,149);stop-opacity:1"/><stop offset="1" style="stop-color:rgb(65,107,167);stop-opacity:1"/></linearGradient>
    </defs>
</svg>
